<?xml version="1.0" encoding="utf-8"?>
<!-- Generator: Adobe Illustrator 24.0.3, SVG Export Plug-In . SVG Version: 6.00 Build 0)  -->
<svg version="1.1" id="Layer_1" xmlns="http://www.w3.org/2000/svg" xmlns:xlink="http://www.w3.org/1999/xlink" x="0px" y="0px"
	 viewBox="0 0 341.17 52.44" style="enable-background:new 0 0 341.17 52.44;" xml:space="preserve">
<style type="text/css">
	.st0{fill:#FFFFFF;}
	.st1{fill:#B59D29;}
</style>
<g>
	<g>
		<g>
			<g>
				<path class="st0" d="M6.54,43.12c-0.94,0-1.58-0.03-1.94-0.1c-0.45-0.1-1.24-0.43-2.37-0.99C1.1,41.46,0.35,41.04,0,40.74
					c0.55-10.85,0.76-19.53,0.63-26.02c-0.03-1.97-0.15-4.05-0.34-6.25L5.62,7.4l0.05,0.05L5.18,20.98
					c3.17-1.52,5.78-2.28,7.85-2.28c3.23,0,5.8,1,7.7,3c1.91,2,2.89,4.57,2.96,7.7c0.06,3.36-0.86,6.2-2.79,8.53
					c-1.92,2.33-4.6,3.86-8.02,4.6C11.24,42.92,9.13,43.12,6.54,43.12z M11.39,21.61c-1.81,0-3.88,0.68-6.2,2.04
					c-0.2,7.65-0.3,13.12-0.3,16.42c1.23,0.16,2.24,0.24,3.05,0.24c3.39,0,6.06-0.97,8-2.91s2.87-4.54,2.81-7.8
					c-0.06-2.2-0.73-4.05-1.99-5.57C15.41,22.41,13.62,21.61,11.39,21.61z"/>
				<path class="st0" d="M48.79,42.88l-0.19,0.19c-0.78-0.06-1.61-0.35-2.5-0.85s-1.77-0.99-2.64-1.48
					c-3.17,1.81-6.35,2.71-9.55,2.71c-4.81,0-7.25-2.37-7.32-7.12c-0.03-1.39-0.02-3.49,0.05-6.3c0.03-2.78,0.03-4.86,0-6.25
					c-0.03-1.78-0.1-3.42-0.19-4.94l0.05-0.05c1.58-0.1,3.42-0.26,5.52-0.48l0.1,0.1c0,1.13-0.1,2.68-0.29,4.65
					c-0.26,2.2-0.39,3.75-0.39,4.65c-0.1,3.07-0.13,5.27-0.1,6.59c0.03,1.68,0.42,3.07,1.16,4.17c0.87,1.29,2.13,1.94,3.78,1.94
					c2.07,0,4.47-1,7.22-3.01c0-0.74,0.05-2.22,0.15-4.42c0.1-1.88,0.15-3.35,0.15-4.42c0-3.11-0.06-6.36-0.19-9.76l0.05-0.05
					c0.26,0,2-0.15,5.23-0.44C48.47,28.8,48.44,36.99,48.79,42.88z"/>
				<path class="st0" d="M75.2,31.44c0,4.1,0.13,7.79,0.39,11.05l-0.15,0.15c-0.78-0.03-1.7-0.26-2.76-0.68
					c-1.52-0.58-2.41-0.92-2.67-1.02c-2.71,1.52-5.17,2.28-7.36,2.28c-3.26,0-5.9-1.05-7.9-3.14c-1.91-2-2.91-4.59-3-7.79
					c-0.13-4.51,1.37-7.98,4.51-10.4c2.87-2.22,6.72-3.34,11.53-3.34c0.9,0,1.87,0.03,2.91,0.1c0.06-2.62,0.08-4.57,0.05-5.86
					c-0.03-0.94-0.11-2.31-0.24-4.12c1.39-0.26,3.17-0.63,5.33-1.11C75.41,15.21,75.2,23.17,75.2,31.44z M67.79,21.31
					c-3.55,0-6.3,0.94-8.24,2.83s-2.86,4.55-2.76,7.97c0.06,2.23,0.66,4.05,1.79,5.48c1.29,1.62,3.07,2.42,5.33,2.42
					c2.23,0,4.38-0.79,6.44-2.37c0.13-4.88,0.18-10.29,0.15-16.23C69.17,21.35,68.27,21.31,67.79,21.31z"/>
				<path class="st0" d="M102.43,31.44c0,4.1,0.13,7.79,0.39,11.05l-0.15,0.15c-0.78-0.03-1.7-0.26-2.76-0.68
					c-1.52-0.58-2.41-0.92-2.67-1.02c-2.71,1.52-5.17,2.28-7.36,2.28c-3.26,0-5.9-1.05-7.9-3.14c-1.91-2-2.91-4.59-3-7.79
					c-0.13-4.51,1.37-7.98,4.51-10.4c2.87-2.22,6.72-3.34,11.53-3.34c0.9,0,1.87,0.03,2.91,0.1c0.06-2.62,0.08-4.57,0.05-5.86
					c-0.03-0.94-0.11-2.31-0.24-4.12c1.39-0.26,3.17-0.63,5.33-1.11C102.64,15.21,102.43,23.17,102.43,31.44z M95.02,21.31
					c-3.55,0-6.3,0.94-8.24,2.83c-1.94,1.89-2.86,4.55-2.76,7.97c0.06,2.23,0.66,4.05,1.79,5.48c1.29,1.62,3.07,2.42,5.33,2.42
					c2.23,0,4.38-0.79,6.44-2.37c0.13-4.88,0.18-10.29,0.15-16.23C96.41,21.35,95.5,21.31,95.02,21.31z"/>
				<path class="st0" d="M125.15,46.46l0.19-3.44c0.03-0.26-0.05-5.07-0.24-14.44c-0.07-4.55-1.71-6.83-4.94-6.83
					c-2.04,0-4.52,0.97-7.46,2.91c-0.16,6.95-0.15,12.92,0.05,17.93c-1.2,0.03-2.97,0.1-5.33,0.19c0.19-4.91,0.36-11.14,0.48-18.7
					c0.1-5.17,0.15-8.4,0.15-9.69c-0.03-1.87-0.13-3.78-0.29-5.72c1.49-0.26,3.34-0.63,5.57-1.11c-0.29,3.55-0.5,8.33-0.63,14.34
					c4.01-2.16,7.27-3.25,9.79-3.25c5.01,0,7.56,2.44,7.66,7.32c0.03,3.42-0.15,9.05-0.53,16.86
					C129.29,44.93,127.8,46.14,125.15,46.46z"/>
				<path class="st0" d="M156.26,32.75c0,5.94,0.02,9.29,0.05,10.03l-0.15,0.34c-0.74-0.03-1.62-0.31-2.62-0.82
					c-0.78-0.39-1.55-0.79-2.33-1.21c-2.58,1.55-4.93,2.33-7.03,2.33c-3.13,0-5.67-1.03-7.61-3.1c-1.87-1.97-2.86-4.54-2.96-7.7
					c-0.16-4.55,1.24-8.09,4.22-10.61c2.75-2.29,6.43-3.44,11.05-3.44c2.62,0,4.44,0.24,5.48,0.73c1.29,0.61,1.97,1.79,2.03,3.54
					c0,0.23-0.02,1.65-0.05,4.26C156.29,29.96,156.26,31.85,156.26,32.75z M148.9,21.46c-3.36-0.16-5.95,0.75-7.78,2.74
					s-2.67,4.71-2.54,8.16c0.06,2.26,0.65,4.09,1.74,5.48c1.19,1.55,2.87,2.33,5.04,2.33c2.07,0,4.07-0.79,6.01-2.37
					c0.13-8.04,0.19-12.76,0.19-14.15c-0.03-0.45-0.26-0.9-0.68-1.36C150.33,21.77,149.67,21.49,148.9,21.46z"/>
			</g>
		</g>
		<g>
			<g>
				<path class="st0" d="M249.15,43.52c-0.94,0-1.58-0.03-1.94-0.1c-0.45-0.1-1.24-0.43-2.37-0.99c-1.13-0.56-1.87-0.99-2.23-1.28
					c0.55-10.85,0.76-19.53,0.63-26.02c-0.03-1.97-0.15-4.05-0.34-6.25l5.33-1.07l0.05,0.05l-0.48,13.52
					c3.17-1.52,5.78-2.28,7.85-2.28c3.23,0,5.8,1,7.7,3c1.91,2,2.89,4.57,2.96,7.7c0.06,3.36-0.86,6.2-2.79,8.53
					c-1.92,2.33-4.6,3.86-8.02,4.6C253.85,43.33,251.73,43.52,249.15,43.52z M254,22.01c-1.81,0-3.88,0.68-6.2,2.04
					c-0.19,7.66-0.29,13.13-0.29,16.43c1.23,0.16,2.24,0.24,3.05,0.24c3.39,0,6.06-0.97,7.99-2.91c1.94-1.94,2.87-4.54,2.81-7.8
					c-0.06-2.2-0.73-4.05-1.99-5.57C258.02,22.82,256.22,22.01,254,22.01z"/>
				<path class="st0" d="M291.4,43.28l-0.19,0.19c-0.78-0.06-1.61-0.35-2.5-0.85s-1.77-0.99-2.64-1.48
					c-3.17,1.81-6.35,2.71-9.55,2.71c-4.81,0-7.25-2.37-7.32-7.12c-0.03-1.39-0.02-3.49,0.05-6.3c0.03-2.78,0.03-4.86,0-6.25
					c-0.03-1.78-0.1-3.42-0.19-4.94l0.05-0.05c1.58-0.1,3.42-0.26,5.52-0.48l0.1,0.1c0,1.13-0.1,2.68-0.29,4.65
					c-0.26,2.2-0.39,3.75-0.39,4.65c-0.1,3.07-0.13,5.27-0.1,6.59c0.03,1.68,0.42,3.07,1.16,4.17c0.87,1.29,2.13,1.94,3.78,1.94
					c2.07,0,4.47-1,7.22-3.01c0-0.74,0.05-2.22,0.15-4.42c0.1-1.88,0.15-3.35,0.15-4.42c0-3.11-0.07-6.36-0.19-9.76l0.05-0.05
					c0.26,0,2-0.15,5.23-0.44C291.08,29.2,291.05,37.39,291.4,43.28z"/>
				<path class="st0" d="M317.81,31.84c0,4.1,0.13,7.79,0.39,11.05l-0.15,0.15c-0.78-0.03-1.7-0.26-2.76-0.68
					c-1.52-0.58-2.41-0.92-2.66-1.02c-2.71,1.52-5.17,2.28-7.37,2.28c-3.26,0-5.9-1.05-7.9-3.14c-1.91-2-2.91-4.59-3-7.79
					c-0.13-4.51,1.37-7.98,4.51-10.4c2.87-2.22,6.72-3.34,11.53-3.34c0.9,0,1.87,0.03,2.91,0.1c0.06-2.62,0.08-4.57,0.05-5.86
					c-0.03-0.94-0.11-2.31-0.24-4.12c1.39-0.26,3.17-0.63,5.33-1.11C318.02,15.61,317.81,23.57,317.81,31.84z M310.4,21.72
					c-3.55,0-6.3,0.94-8.24,2.83s-2.86,4.55-2.76,7.97c0.06,2.23,0.66,4.05,1.79,5.48c1.29,1.62,3.07,2.42,5.33,2.42
					c2.23,0,4.38-0.79,6.44-2.37c0.13-4.88,0.18-10.29,0.15-16.23C311.78,21.75,310.88,21.72,310.4,21.72z"/>
				<path class="st0" d="M339.37,22.69c-1.81-0.87-3.67-1.31-5.57-1.31c-1.45,0-2.75,0.26-3.88,0.78c-1.42,0.68-2.12,1.62-2.08,2.81
					c0.03,1.55,1.18,2.68,3.44,3.39c2.13,0.65,4.25,1.29,6.35,1.94c2.29,1.1,3.47,2.91,3.54,5.43c0.06,2.13-1.03,4.12-3.29,5.96
					c-1.32,1.1-3.21,1.94-5.67,2.52c-2.1,0.48-4.22,0.73-6.35,0.73c-1.39,0-2.88-0.23-4.46-0.68l-0.05-0.1
					c0.1-0.61,0.34-1.78,0.73-3.49c3.29,0.61,5.2,0.92,5.72,0.92c1.87,0,3.57-0.34,5.09-1.02c1.94-0.9,2.89-2.16,2.86-3.78
					c-0.07-1.49-1.2-2.62-3.39-3.39c-2.07-0.68-4.12-1.36-6.15-2.04c-2.23-1.1-3.38-2.81-3.44-5.14c-0.07-2.75,1.26-4.8,3.97-6.15
					c2.13-1.03,4.76-1.55,7.9-1.55c1.87,0,3.55,0.24,5.04,0.73l0.05,0.1C339.64,20.09,339.53,21.2,339.37,22.69z"/>
			</g>
		</g>
	</g>
</g>
<g>
	<path class="st1" d="M198.85,27.32C198.85,27.32,198.85,27.32,198.85,27.32c-3.1,0-5.98,0.98-8.11,2.76
		c-0.04,0.04-0.07,0.06-0.08,0.07c-0.03,0.02-0.05,0.06-0.07,0.1c0.07,0.09,0.14,0.18,0.21,0.27c0.03,0.04,0.06,0.08,0.09,0.12
		c0.08,0.1,0.17,0.2,0.26,0.3c0.03,0.03,0.05,0.06,0.08,0.09c0.06,0.07,0.13,0.15,0.2,0.22c0.05,0.06,0.1,0.12,0.16,0.17
		c0.07,0.07,0.15,0.15,0.22,0.22c0.05,0.05,0.1,0.11,0.16,0.16c0.1,0.09,0.2,0.18,0.3,0.27c0.04,0.03,0.07,0.06,0.1,0.1
		c0.02,0.02,0.05,0.04,0.07,0.06c0.35,0.2,0.75,0.35,1.17,0.4c0.04,0.01,0.09-0.01,0.13-0.03c0.17-0.09,2.21-0.73,5.11-0.73l0.17,0
		c1.5-0.01,3.21-0.01,4.96,0.75c0.03,0.01,0.06,0.02,0.09,0.02c0.02,0,0.04,0,0.05-0.01c0.05-0.01,0.77-0.2,1.55-0.65
		c0.11-0.09,0.21-0.19,0.32-0.29c0.1-0.09,0.21-0.19,0.31-0.28c0.13-0.13,0.25-0.26,0.37-0.39c0.09-0.1,0.19-0.2,0.28-0.3
		c0.06-0.06,0.11-0.13,0.16-0.2c-0.01-0.03-0.02-0.06-0.04-0.08C204.53,28.32,202.89,27.32,198.85,27.32z"/>
	<path class="st1" d="M200.83,33.84l-0.01,0c-0.35,0.04-0.73,0.05-1.09,0.06c-0.37,0.01-0.74,0.02-1.11,0.02
		c-0.75,0.01-1.47-0.01-2.21-0.08c-0.1-0.01-0.2,0.05-0.23,0.15c-0.03,0.11,0.03,0.21,0.13,0.25c0.04,0.01,0.07,0.02,0.11,0.03
		c0.11,0.02,0.21,0.04,0.32,0.06c0.1,0.02,0.2,0.04,0.3,0.05c0.1,0.02,0.21,0.02,0.31,0.03c0.11,0.01,0.22,0.03,0.33,0.04
		c0.11,0.01,0.22,0.01,0.33,0.01c0.12,0,0.23,0.01,0.35,0.01c0.29,0.01,0.57-0.01,0.85-0.02c0.2-0.01,0.4-0.01,0.59-0.03
		c0.21-0.02,0.41-0.05,0.61-0.08c0.01,0,0.01,0,0.02,0c0.15-0.03,0.3-0.06,0.45-0.1c0.1-0.03,0.17-0.12,0.16-0.23
		C201.05,33.91,200.94,33.83,200.83,33.84z"/>
	<path class="st1" d="M176.38,43.69c-0.13-0.09-0.24-0.19-0.37-0.29c-0.81,0.81-2.07,1.68-3.43,1.75c-0.06,0-0.13,0.01-0.19,0.01
		c-1.05,0-2-0.47-2.82-1.4c-0.67-0.87-0.91-1.79-0.73-2.76c0.31-1.65,1.77-3,2.69-3.7c-0.35-1.01-0.53-2.05-0.57-3.1
		c0-0.06-0.01-0.12-0.01-0.18c-0.03-1.55,0.25-3.1,0.78-4.54c-0.28-0.24-0.53-0.51-0.73-0.83c-0.34-0.53-0.53-1.24-0.35-1.91
		c0.17-0.66,0.68-1.23,1.29-1.51c0.34-0.16,0.97-0.23,1.58-0.26c0.17-0.01,0.33-0.01,0.49-0.02c0.19-1.14,0.41-2.27,0.67-3.4
		c-0.17-0.07-0.35-0.14-0.52-0.2c-0.42-0.14-0.85-0.25-1.27-0.32c-0.43-0.06-0.86-0.05-1.28,0.01c-0.43,0.05-0.83,0.22-1.26,0.41
		l-0.15-0.21c0.36-0.33,0.78-0.63,1.28-0.76c0.48-0.14,1.01-0.19,1.5-0.12c0.66,0.08,1.28,0.31,1.82,0.65
		c0.13-0.56,0.27-1.12,0.41-1.67c-0.41-0.27-0.83-0.51-1.3-0.69c-0.51-0.19-1.07-0.3-1.65-0.3c-0.29,0-0.58,0.04-0.87,0.1
		c-0.16,0.03-0.29,0.08-0.41,0.13l-0.38,0.15c-1.97,0.8-3.7,2.5-4.31,4.6c-0.31,1.04-0.42,2.12-0.3,3.17
		c0.1,1.05,0.36,2.07,0.75,3.02c0.38,0.96,0.87,1.87,1.48,2.69c0.48,0.63,1.78,1.95,1.6,1.78c-0.43,0.18-0.85,0.37-1.26,0.59
		c-0.61,0.31-1.2,0.65-1.77,1.04c-1.13,0.77-2.2,1.7-3.01,2.88c-0.82,1.16-1.44,2.53-1.69,4.01c-0.09,0.74-0.14,1.5-0.06,2.23
		c0.03,0.37,0.12,0.73,0.19,1.09c0.09,0.36,0.21,0.7,0.31,1.05c0.01,0.03,0.02,0.06,0.04,0.09l0.01,0.02
		c0.39,0.77,0.86,1.54,1.51,2.19c0.63,0.66,1.41,1.19,2.25,1.53c0.84,0.34,1.71,0.52,2.55,0.56c0.85,0.05,1.67-0.02,2.48-0.14
		l0.06-0.01c0.86-0.21,1.73-0.47,2.55-0.86c0.82-0.39,1.58-0.9,2.24-1.48c0.66-0.58,1.29-1.19,1.9-1.8l0.91-0.92l0.24-0.24
		c0.05-0.05,0.1-0.11,0.15-0.16c-0.22-0.12-0.44-0.25-0.65-0.38C177.96,44.8,177.16,44.28,176.38,43.69z M172.03,49.24
		c-0.19,0.04-0.39,0.07-0.59,0.1c-0.2,0.04-0.4,0.06-0.6,0.05l-0.61,0.01l-0.61-0.08c-0.2-0.02-0.4-0.07-0.6-0.13
		c-0.2-0.06-0.4-0.1-0.59-0.19c-0.78-0.27-1.48-0.75-2.05-1.32c-0.57-0.58-1.02-1.26-1.26-2.05l0.36-0.17
		c0.94,1.13,2.04,2.07,3.34,2.58c0.65,0.24,1.33,0.44,2.05,0.48c0.36,0.06,0.72,0.02,1.09,0.04c0.37,0,0.73-0.06,1.11-0.06
		l0.09,0.38C172.79,49.02,172.42,49.14,172.03,49.24z"/>
	<path class="st1" d="M237.13,42.53c0,0-0.29-7.67-7.49-8.6c0.6-0.56,1.11-1.15,1.59-1.78c0.62-0.82,1.1-1.74,1.48-2.69
		c0.39-0.96,0.65-1.97,0.75-3.02c0.03-0.25,0.04-0.51,0.05-0.76c0-0.78-0.11-1.57-0.34-2.34c-0.61-2.11-2.26-4.71-5.97-5.01
		c-1.17-0.09-2.19,0.29-3.1,0.95c0.1,0.36,0.19,0.72,0.29,1.08c0.06,0.24,0.12,0.48,0.18,0.73c0.57-0.38,1.22-0.62,1.92-0.71
		c0.5-0.07,1.02-0.02,1.5,0.12c0.49,0.13,0.92,0.43,1.28,0.76l-0.15,0.21c-0.42-0.18-0.83-0.35-1.26-0.41
		c-0.43-0.06-0.85-0.07-1.28-0.01c-0.43,0.07-0.85,0.17-1.27,0.32c-0.2,0.07-0.4,0.15-0.61,0.23c0.07,0.27,0.14,0.54,0.2,0.82
		c0.19,0.83,0.36,1.67,0.52,2.52c0.53-0.04,1,0.01,1.67,0.3c0.62,0.28,1.12,0.84,1.29,1.51c0.19,0.67,0,1.38-0.35,1.91
		c-0.32,0.52-0.77,0.92-1.26,1.22c0.04,0.09,0.09,0.18,0.12,0.27c0.66,1.68,1.03,3.56,0.73,5.43c-0.05,0.38-0.13,0.75-0.23,1.11
		c0.69,0.47,2.82,2.05,3.2,4.07c0.05,0.25,0.06,0.5,0.05,0.74c-0.01,0.72-0.27,1.42-0.77,2.07c-0.84,0.95-1.79,1.42-2.84,1.42
		c-0.06,0-0.13,0-0.19-0.01c-1.47-0.08-2.83-1.08-3.62-1.95c-0.49,0.43-1.01,0.84-1.53,1.25c-0.56,0.43-1.14,0.84-1.73,1.23
		c-2.27,1.51-4.78,2.79-7.25,3.87c-0.03,0.01-0.07,0-0.08-0.03c-0.01-0.02-0.01-0.03,0-0.05l0.02-0.05
		c0.04-0.09,0.09-0.17,0.13-0.26c0.42-0.9,0.96-1.52,1.52-2.07c0.63-0.59,1.3-1.06,2.17-1.23c1.88-0.13,3.14-1.32,4.42-2.36
		c0.63-0.54,1.22-1.13,1.74-1.76c0.53-0.63,1.01-1.28,1.43-1.96c0.42-0.68,0.77-1.39,1.02-2.12c0.25-0.72,0.46-1.45,0.53-2.19
		c0.11-0.74,0.09-1.47,0-2.23c-0.09-0.76-0.25-1.51-0.5-2.25c-0.51-1.47-1.33-2.89-2.32-4.12c-1.1-1.32-2.13-2.74-3.12-4.14
		c-0.49-0.71-0.95-1.44-1.41-2.17c-0.46-0.73-0.91-1.46-1.32-2.22l0,0c-0.06-0.1-0.02-0.23,0.08-0.28c0.09-0.05,0.2-0.03,0.26,0.05
		c1.09,1.31,2.18,2.63,3.31,3.91c0.75,0.88,1.52,1.74,2.31,2.58c0.15,0.16,0.3,0.31,0.45,0.47c0.18,0.18,0.35,0.37,0.53,0.56
		c0.01,0.01,0.02,0.02,0.03,0.04c-0.03-0.96-0.08-1.92-0.16-2.88c-0.05-0.7-0.12-1.39-0.19-2.09l-0.13-1.21
		c-0.34-2.36-0.98-4.7-1.95-6.93c-0.63-1.29-1.35-2.56-2.22-3.73c-0.88-1.16-1.87-2.24-2.97-3.21c-2.2-1.95-4.86-3.3-7.62-4.21
		c-1.38-0.46-2.8-0.78-4.24-1c-0.72-0.11-1.44-0.19-2.18-0.23c-0.37-0.02-0.73-0.04-1.12-0.03l-1.06,0.03
		c-2.85,0.09-5.78,0.5-8.51,1.49c-1.38,0.45-2.7,1.1-3.97,1.81c-1.27,0.71-2.44,1.61-3.53,2.56c-2.18,1.93-3.96,4.24-5.33,6.75
		c-0.67,1.26-1.25,2.57-1.73,3.91c-0.41,1.13-1.07,4.4-1.11,4.87c-0.07,0.93-0.17,1.68-0.23,2.48c0.32-0.29,0.67-0.58,0.98-0.83
		l1.16-0.99c1.54-1.34,3.05-2.71,4.56-4.09c0.08-0.07,0.19-0.07,0.26,0.01c0.07,0.07,0.06,0.19,0,0.26
		c-1.42,1.47-2.85,2.93-4.31,4.37l-1.11,1.07c-0.39,0.37-0.73,0.68-1.07,1.05c-0.67,0.73-1.26,1.53-1.77,2.37
		c-1.02,1.68-1.67,3.56-1.74,5.44c-0.1,1.95,0.33,3.76,1.26,5.41c0.45,0.82,1.03,1.58,1.67,2.29c0.64,0.71,1.32,1.4,2.05,2.05
		c1.45,1.31,3.1,2.47,4.84,3.47c3.47,2.01,7.33,3.36,11.29,4.32c0.12,0.03,0.2,0.15,0.17,0.28c-0.03,0.12-0.14,0.19-0.26,0.18
		c-3.02-0.49-6.04-1.21-8.94-2.31c0.23,0.15,0.45,0.3,0.66,0.48c0.52,0.49,1.09,0.94,1.71,1.28c2.55,1.24,5.36,1.96,8.22,2.32
		l2.16,0.21c0.72,0.01,1.45,0,2.17-0.01l1.09-0.01l1.08-0.1l1.88-0.18l0.38-0.04c1.4-0.2,4.44-0.9,4.44-0.9
		c6.03-1.54,9.95-3.86,11.85-5.22c0.02,0.02,5.94,7.69,12.64,4.39c0.79-0.35,1.51-0.87,2.1-1.51c0.59-0.63,1.06-1.36,1.43-2.1
		l0-0.01c0.01-0.02,0.02-0.04,0.03-0.07c0.22-0.67,0.42-1.36,0.53-2.07c0.06-0.35,0.09-0.7,0.1-1.06
		C237.17,43.21,237.16,42.87,237.13,42.53z M203.24,9.02c0.91-0.75,1.91-1.32,3.02-1.69c1.1-0.35,2.34-0.46,3.48-0.08
		c1.12,0.36,2.12,1.04,2.93,1.86c0.82,0.82,1.47,1.77,2.06,2.73c0.09,0.15,0.05,0.34-0.1,0.43c-0.13,0.08-0.29,0.05-0.39-0.05
		l-0.04-0.04c-0.76-0.83-1.49-1.64-2.28-2.31c-0.79-0.67-1.64-1.16-2.55-1.45c-0.84-0.26-1.79-0.21-2.75,0.01
		c-0.96,0.22-1.97,0.61-2.96,1.06l-0.1,0.04c-0.15,0.07-0.33,0-0.4-0.15C203.1,9.26,203.14,9.11,203.24,9.02z M212.87,16.68
		c-0.04,0.03-0.08,0.03-0.12,0.01l-0.03-0.01c-0.25-0.11-0.46-0.25-0.69-0.37c-0.23-0.11-0.44-0.23-0.66-0.34
		c-0.44-0.21-0.87-0.37-1.3-0.5c-0.44-0.1-0.88-0.18-1.34-0.19c-0.46-0.01-0.95,0-1.46,0.08l-0.03,0.01
		c-0.07,0.01-0.13-0.04-0.14-0.1c-0.01-0.04,0.01-0.09,0.04-0.11c0.43-0.37,0.96-0.57,1.51-0.67c0.55-0.08,1.13-0.05,1.67,0.11
		c0.53,0.18,1.04,0.41,1.47,0.76c0.22,0.16,0.41,0.36,0.61,0.54c0.17,0.21,0.35,0.41,0.5,0.63
		C212.94,16.56,212.92,16.64,212.87,16.68z M199.31,13.15c0.67,0.03,1.33,0.21,1.92,0.5c0.65,0.32,1.16,0.74,1.68,1.13
		c1.02,0.8,1.96,1.65,2.89,2.54c0.31,0.15,0.61,0.31,0.87,0.57c0.29,0.27,0.49,0.65,0.55,1.04c0.07,0.39,0,0.77-0.11,1.11
		c-0.11,0.34-0.28,0.65-0.49,0.94c-0.03,0.04-0.08,0.04-0.11,0.02c-0.03-0.02-0.04-0.06-0.03-0.1l0-0.01
		c0.27-0.59,0.41-1.28,0.24-1.84c-0.08-0.28-0.25-0.51-0.48-0.67c-0.22-0.18-0.5-0.29-0.79-0.39l-0.05-0.02l-0.07-0.05
		c-1-0.78-2.02-1.56-3.04-2.31c-0.51-0.36-1.03-0.73-1.53-0.97c-0.49-0.23-1.01-0.36-1.53-0.37c-0.52,0.01-1.04,0.14-1.53,0.37
		c-0.5,0.24-1.02,0.61-1.54,0.97c-1.02,0.74-2.04,1.52-3.04,2.3l-0.07,0.05L193,17.97c-0.28,0.1-0.57,0.21-0.79,0.39
		c-0.24,0.16-0.4,0.4-0.49,0.67c-0.17,0.56-0.03,1.25,0.24,1.85l0,0.01c0.02,0.03,0,0.08-0.03,0.09c-0.03,0.01-0.07,0-0.08-0.02
		c-0.21-0.28-0.38-0.59-0.49-0.93c-0.11-0.34-0.18-0.72-0.11-1.1c0.06-0.38,0.26-0.77,0.55-1.03c0.25-0.26,0.56-0.42,0.86-0.57
		c0.93-0.89,1.88-1.74,2.89-2.54c0.52-0.4,1.03-0.81,1.68-1.13c0.59-0.29,1.25-0.47,1.92-0.5L199.31,13.15z M204.75,21.17
		c-0.02,0.01-0.05,0.01-0.07,0.01l-0.02-0.01c-0.54-0.16-0.99-0.24-1.47-0.27c-0.24-0.01-0.48-0.02-0.74-0.02
		c-0.26,0-0.52,0-0.83-0.03l-0.01,0c-0.06-0.01-0.1-0.06-0.1-0.12c0-0.03,0.01-0.05,0.03-0.06c0.44-0.44,1.07-0.63,1.7-0.59
		c0.62,0.06,1.28,0.36,1.56,0.97C204.82,21.08,204.8,21.15,204.75,21.17z M196.77,20.81c-0.02,0.02-0.04,0.03-0.06,0.03l-0.01,0
		c-0.3,0.04-0.57,0.03-0.83,0.03c-0.26,0.01-0.5,0.01-0.74,0.02c-0.48,0.03-0.94,0.11-1.47,0.27l-0.02,0.01
		c-0.06,0.02-0.11-0.01-0.13-0.07c-0.01-0.03-0.01-0.05,0-0.07c0.28-0.61,0.94-0.91,1.56-0.97c0.63-0.04,1.26,0.15,1.7,0.59
		C196.81,20.7,196.81,20.77,196.77,20.81z M186.17,10.26l0.04-0.05c0.62-0.84,1.35-1.61,2.23-2.24c0.87-0.63,1.93-1.14,3.12-1.28
		c1.16-0.14,2.32,0.08,3.33,0.49c1.02,0.42,1.91,1.05,2.63,1.88l0.04,0.04c0.11,0.13,0.1,0.32-0.03,0.42
		c-0.11,0.09-0.26,0.1-0.37,0.02c-0.78-0.56-1.68-1.01-2.61-1.32c-0.93-0.31-1.91-0.46-2.86-0.36c-0.95,0.1-1.87,0.49-2.7,0.99
		c-0.84,0.51-1.62,1.14-2.36,1.8c-0.12,0.11-0.31,0.1-0.42-0.02C186.09,10.53,186.09,10.37,186.17,10.26z M186.04,16.51
		c0.13-0.24,0.29-0.46,0.45-0.69c0.19-0.2,0.36-0.42,0.59-0.59c0.43-0.37,0.94-0.64,1.5-0.82c0.56-0.16,1.17-0.2,1.74-0.08
		c0.57,0.11,1.1,0.39,1.5,0.83c0.05,0.05,0.04,0.13-0.01,0.18c-0.03,0.03-0.08,0.04-0.13,0.03c-0.47-0.14-0.96-0.23-1.44-0.23
		c-0.48-0.03-0.95,0.05-1.41,0.16c-0.46,0.12-0.9,0.33-1.33,0.56c-0.22,0.11-0.42,0.27-0.64,0.39c-0.21,0.14-0.41,0.3-0.63,0.44
		c-0.06,0.04-0.14,0.02-0.18-0.04C186.02,16.6,186.02,16.55,186.04,16.51L186.04,16.51z M206.81,39.58
		c-0.61,0.36-1.23,0.72-1.87,1.04l-0.99,0.42l-0.5,0.21l-0.52,0.16l-1.04,0.31c-0.35,0.08-0.71,0.14-1.06,0.21l-0.53,0.1l-0.54,0.04
		c-0.36,0.02-0.72,0.07-1.08,0.07c-1.45,0.04-2.9-0.17-4.29-0.59c-1.39-0.41-2.7-1.05-3.83-1.97c-0.07-0.05-0.08-0.15-0.02-0.22
		c0.05-0.06,0.13-0.07,0.2-0.04l0.01,0.01c1.2,0.66,2.53,1.12,3.85,1.43c1.33,0.3,2.7,0.47,4.06,0.44c0.34,0.01,0.68-0.04,1.02-0.05
		l0.51-0.03l0.51-0.08l1.02-0.15l1-0.23l0.5-0.11l0.49-0.16l0.99-0.31c0.66-0.22,1.29-0.51,1.96-0.74l0.02-0.01
		c0.08-0.03,0.16,0.01,0.19,0.09C206.89,39.47,206.86,39.54,206.81,39.58z M194.91,35.52c0.04-0.13,0.18-0.21,0.31-0.19l0,0
		c1.07,0.17,2.14,0.43,3.16,0.45c0.52,0.01,1.06-0.02,1.57-0.08c0.51-0.06,1.05-0.17,1.47-0.33l0.05-0.02
		c0.14-0.06,0.3,0.01,0.36,0.16c0.05,0.13,0,0.27-0.11,0.34c-0.55,0.34-1.09,0.47-1.66,0.58c-0.56,0.1-1.12,0.13-1.69,0.14
		c-1.17-0.05-2.24-0.34-3.28-0.69C194.94,35.82,194.86,35.66,194.91,35.52z M210.52,26.14c-1.3,2.71-4.32,8.96-11.76,8.96
		c-0.14,0-0.28,0-0.4-0.01c-3.19,0-6.04-1.55-8.26-4.49c-1.43-1.89-2.15-3.76-2.33-4.29c-0.25,0.1-0.5,0.18-0.76,0.25
		c-0.42,0.11-0.86,0.17-1.29,0.2c-0.11,0.01-0.21-0.08-0.22-0.19c-0.01-0.09,0.05-0.17,0.12-0.2l0.01,0
		c0.78-0.33,1.56-0.59,2.29-0.94c0.36-0.18,0.7-0.37,1-0.6c0.29-0.22,0.55-0.54,0.61-0.81l0.02-0.08c0.03-0.1,0.13-0.17,0.23-0.14
		c0.08,0.02,0.14,0.09,0.15,0.16c0.04,0.34-0.05,0.61-0.19,0.86l0.1,0.08c0.28,0.22,0.52,0.41,0.72,0.47
		c2.67,0.84,5.37,0.89,7.98,0.94l0.15,0c0.39,0.01,0.78,0.01,1.16,0.01c3.45,0,6.23-0.3,7.61-0.81c0.2-0.07,0.66-0.51,0.82-0.66
		c0.08-0.07,0.14-0.13,0.17-0.16l0.32-0.27c-0.03-0.14-0.04-0.29-0.02-0.45c0.01-0.11,0.11-0.18,0.22-0.17
		c0.08,0.01,0.15,0.07,0.16,0.15l0.02,0.08c0.07,0.27,0.32,0.59,0.61,0.81c0.3,0.23,0.64,0.42,1,0.6c0.73,0.34,1.51,0.6,2.29,0.94
		l0.01,0c0.1,0.04,0.15,0.16,0.11,0.27c-0.04,0.08-0.12,0.13-0.2,0.12c-0.43-0.03-0.87-0.09-1.29-0.2
		C211.29,26.46,210.9,26.31,210.52,26.14z M232.84,47.68c-0.58,0.57-1.27,1.05-2.05,1.32c-0.19,0.09-0.39,0.13-0.59,0.19
		c-0.2,0.06-0.4,0.11-0.6,0.13l-0.61,0.08l-0.61-0.01c-0.2,0.01-0.4-0.01-0.6-0.05c-0.2-0.03-0.39-0.06-0.59-0.1
		c-0.38-0.1-0.76-0.22-1.13-0.35l0.09-0.38c0.38,0,0.75,0.06,1.11,0.06c0.37-0.03,0.73,0.02,1.09-0.04c0.72-0.04,1.4-0.24,2.05-0.48
		c1.29-0.51,2.4-1.45,3.34-2.58l0.36,0.17C233.86,46.42,233.41,47.1,232.84,47.68z"/>
</g>
</svg>
