<?xml version="1.0" encoding="utf-8"?>
<!-- Generator: Adobe Illustrator 24.0.3, SVG Export Plug-In . SVG Version: 6.00 Build 0)  -->
<svg version="1.1" id="Layer_1" xmlns="http://www.w3.org/2000/svg" xmlns:xlink="http://www.w3.org/1999/xlink" x="0px" y="0px"
	 viewBox="0 0 341.17 52.44" style="enable-background:new 0 0 341.17 52.44;" xml:space="preserve">
<style type="text/css">
	.st0{fill:#414042;}
	.st1{fill:#B69D29;}
</style>
<g>
	<g>
		<g>
			<g>
				<path class="st0" d="M6.54,43.12c-0.94,0-1.58-0.03-1.94-0.1c-0.45-0.1-1.24-0.43-2.37-0.99C1.1,41.46,0.35,41.04,0,40.74
					c0.55-10.85,0.76-19.53,0.63-26.02c-0.03-1.97-0.15-4.05-0.34-6.25l5.33-1.07l0.05,0.05L5.18,20.98
					c3.17-1.52,5.78-2.28,7.85-2.28c3.23,0,5.8,1,7.7,3c1.91,2,2.89,4.57,2.96,7.7c0.06,3.36-0.86,6.2-2.79,8.53
					c-1.92,2.33-4.6,3.86-8.02,4.6C11.24,42.92,9.13,43.12,6.54,43.12z M11.39,21.61c-1.81,0-3.88,0.68-6.2,2.04
					C4.99,31.3,4.89,36.77,4.89,40.07c1.23,0.16,2.24,0.24,3.05,0.24c3.39,0,6.06-0.97,8-2.91c1.94-1.94,2.87-4.54,2.81-7.8
					c-0.06-2.2-0.73-4.05-1.99-5.57C15.41,22.41,13.62,21.61,11.39,21.61z"/>
				<path class="st0" d="M48.79,42.88l-0.19,0.19c-0.78-0.06-1.61-0.35-2.5-0.85c-0.89-0.5-1.77-0.99-2.64-1.48
					c-3.17,1.81-6.35,2.71-9.55,2.71c-4.81,0-7.25-2.37-7.32-7.12c-0.03-1.39-0.02-3.49,0.05-6.3c0.03-2.78,0.03-4.86,0-6.25
					c-0.03-1.78-0.1-3.42-0.19-4.94l0.05-0.05c1.58-0.1,3.42-0.26,5.52-0.48l0.1,0.1c0,1.13-0.1,2.68-0.29,4.65
					c-0.26,2.2-0.39,3.75-0.39,4.65c-0.1,3.07-0.13,5.27-0.1,6.59c0.03,1.68,0.42,3.07,1.16,4.17c0.87,1.29,2.13,1.94,3.78,1.94
					c2.07,0,4.47-1,7.22-3.01c0-0.74,0.05-2.22,0.15-4.42c0.1-1.88,0.15-3.35,0.15-4.42c0-3.11-0.06-6.36-0.19-9.76l0.05-0.05
					c0.26,0,2-0.15,5.23-0.44C48.47,28.8,48.44,36.99,48.79,42.88z"/>
				<path class="st0" d="M75.2,31.44c0,4.1,0.13,7.79,0.39,11.05l-0.15,0.15c-0.78-0.03-1.7-0.26-2.76-0.68
					c-1.52-0.58-2.41-0.92-2.67-1.02c-2.71,1.52-5.17,2.28-7.36,2.28c-3.26,0-5.9-1.05-7.9-3.14c-1.91-2-2.91-4.59-3-7.79
					c-0.13-4.51,1.37-7.98,4.51-10.4c2.87-2.22,6.72-3.34,11.53-3.34c0.9,0,1.87,0.03,2.91,0.1c0.06-2.62,0.08-4.57,0.05-5.86
					c-0.03-0.94-0.11-2.31-0.24-4.12c1.39-0.26,3.17-0.63,5.33-1.11C75.41,15.21,75.2,23.17,75.2,31.44z M67.79,21.31
					c-3.55,0-6.3,0.94-8.24,2.83c-1.94,1.89-2.86,4.55-2.76,7.97c0.06,2.23,0.66,4.05,1.79,5.48c1.29,1.62,3.07,2.42,5.33,2.42
					c2.23,0,4.38-0.79,6.44-2.37c0.13-4.88,0.18-10.29,0.15-16.23C69.17,21.35,68.27,21.31,67.79,21.31z"/>
				<path class="st0" d="M102.43,31.44c0,4.1,0.13,7.79,0.39,11.05l-0.15,0.15c-0.78-0.03-1.7-0.26-2.76-0.68
					c-1.52-0.58-2.41-0.92-2.67-1.02c-2.71,1.52-5.17,2.28-7.36,2.28c-3.26,0-5.9-1.05-7.9-3.14c-1.91-2-2.91-4.59-3-7.79
					c-0.13-4.51,1.37-7.98,4.51-10.4c2.87-2.22,6.72-3.34,11.53-3.34c0.9,0,1.87,0.03,2.91,0.1c0.06-2.62,0.08-4.57,0.05-5.86
					c-0.03-0.94-0.11-2.31-0.24-4.12c1.39-0.26,3.17-0.63,5.33-1.11C102.64,15.21,102.43,23.17,102.43,31.44z M95.02,21.31
					c-3.55,0-6.3,0.94-8.24,2.83c-1.94,1.89-2.86,4.55-2.76,7.97c0.06,2.23,0.66,4.05,1.79,5.48c1.29,1.62,3.07,2.42,5.33,2.42
					c2.23,0,4.38-0.79,6.44-2.37c0.13-4.88,0.18-10.29,0.15-16.23C96.41,21.35,95.5,21.31,95.02,21.31z"/>
				<path class="st0" d="M125.15,46.46l0.19-3.44c0.03-0.26-0.05-5.07-0.24-14.44c-0.07-4.55-1.71-6.83-4.94-6.83
					c-2.04,0-4.52,0.97-7.46,2.91c-0.16,6.95-0.15,12.92,0.05,17.93c-1.2,0.03-2.97,0.1-5.33,0.19c0.19-4.91,0.36-11.14,0.48-18.7
					c0.1-5.17,0.15-8.4,0.15-9.69c-0.03-1.87-0.13-3.78-0.29-5.72c1.49-0.26,3.34-0.63,5.57-1.11c-0.29,3.55-0.5,8.33-0.63,14.34
					c4.01-2.16,7.27-3.25,9.79-3.25c5.01,0,7.56,2.44,7.66,7.32c0.03,3.42-0.15,9.05-0.53,16.86
					C129.29,44.93,127.8,46.14,125.15,46.46z"/>
				<path class="st0" d="M156.26,32.75c0,5.94,0.02,9.29,0.05,10.03l-0.15,0.34c-0.74-0.03-1.62-0.31-2.62-0.82
					c-0.78-0.39-1.55-0.79-2.33-1.21c-2.58,1.55-4.93,2.33-7.03,2.33c-3.13,0-5.67-1.03-7.61-3.1c-1.87-1.97-2.86-4.54-2.96-7.7
					c-0.16-4.55,1.24-8.09,4.22-10.61c2.75-2.29,6.43-3.44,11.05-3.44c2.62,0,4.44,0.24,5.48,0.73c1.29,0.61,1.97,1.79,2.03,3.54
					c0,0.23-0.02,1.65-0.05,4.26C156.29,29.96,156.26,31.85,156.26,32.75z M148.9,21.46c-3.36-0.16-5.95,0.75-7.78,2.74
					c-1.83,1.99-2.67,4.71-2.54,8.16c0.06,2.26,0.65,4.09,1.74,5.48c1.19,1.55,2.87,2.33,5.04,2.33c2.07,0,4.07-0.79,6.01-2.37
					c0.13-8.04,0.19-12.76,0.19-14.15c-0.03-0.45-0.26-0.9-0.68-1.36C150.33,21.77,149.67,21.49,148.9,21.46z"/>
			</g>
		</g>
		<g>
			<g>
				<path class="st0" d="M249.15,43.52c-0.94,0-1.58-0.03-1.94-0.1c-0.45-0.1-1.24-0.43-2.37-0.99c-1.13-0.56-1.87-0.99-2.23-1.28
					c0.55-10.85,0.76-19.53,0.63-26.02c-0.03-1.97-0.15-4.05-0.34-6.25l5.33-1.07l0.05,0.05l-0.48,13.52
					c3.17-1.52,5.78-2.28,7.85-2.28c3.23,0,5.8,1,7.7,3c1.91,2,2.89,4.57,2.96,7.7c0.06,3.36-0.86,6.2-2.79,8.53
					c-1.92,2.33-4.6,3.86-8.02,4.6C253.85,43.33,251.73,43.52,249.15,43.52z M254,22.01c-1.81,0-3.88,0.68-6.2,2.04
					c-0.19,7.66-0.29,13.13-0.29,16.43c1.23,0.16,2.24,0.24,3.05,0.24c3.39,0,6.06-0.97,7.99-2.91c1.94-1.94,2.87-4.54,2.81-7.8
					c-0.06-2.2-0.73-4.05-1.99-5.57C258.02,22.82,256.22,22.01,254,22.01z"/>
				<path class="st0" d="M291.4,43.28l-0.19,0.19c-0.78-0.06-1.61-0.35-2.5-0.85c-0.89-0.5-1.77-0.99-2.64-1.48
					c-3.17,1.81-6.35,2.71-9.55,2.71c-4.81,0-7.25-2.37-7.32-7.12c-0.03-1.39-0.02-3.49,0.05-6.3c0.03-2.78,0.03-4.86,0-6.25
					c-0.03-1.78-0.1-3.42-0.19-4.94l0.05-0.05c1.58-0.1,3.42-0.26,5.52-0.48l0.1,0.1c0,1.13-0.1,2.68-0.29,4.65
					c-0.26,2.2-0.39,3.75-0.39,4.65c-0.1,3.07-0.13,5.27-0.1,6.59c0.03,1.68,0.42,3.07,1.16,4.17c0.87,1.29,2.13,1.94,3.78,1.94
					c2.07,0,4.47-1,7.22-3.01c0-0.74,0.05-2.22,0.15-4.42c0.1-1.88,0.15-3.35,0.15-4.42c0-3.11-0.07-6.36-0.19-9.76l0.05-0.05
					c0.26,0,2-0.15,5.23-0.44C291.08,29.2,291.05,37.39,291.4,43.28z"/>
				<path class="st0" d="M317.81,31.84c0,4.1,0.13,7.79,0.39,11.05l-0.15,0.15c-0.78-0.03-1.7-0.26-2.76-0.68
					c-1.52-0.58-2.41-0.92-2.66-1.02c-2.71,1.52-5.17,2.28-7.37,2.28c-3.26,0-5.9-1.05-7.9-3.14c-1.91-2-2.91-4.59-3-7.79
					c-0.13-4.51,1.37-7.98,4.51-10.4c2.87-2.22,6.72-3.34,11.53-3.34c0.9,0,1.87,0.03,2.91,0.1c0.06-2.62,0.08-4.57,0.05-5.86
					c-0.03-0.94-0.11-2.31-0.24-4.12c1.39-0.26,3.17-0.63,5.33-1.11C318.02,15.61,317.81,23.57,317.81,31.84z M310.4,21.72
					c-3.55,0-6.3,0.94-8.24,2.83c-1.94,1.89-2.86,4.55-2.76,7.97c0.06,2.23,0.66,4.05,1.79,5.48c1.29,1.62,3.07,2.42,5.33,2.42
					c2.23,0,4.38-0.79,6.44-2.37c0.13-4.88,0.18-10.29,0.15-16.23C311.78,21.75,310.88,21.72,310.4,21.72z"/>
				<path class="st0" d="M339.37,22.69c-1.81-0.87-3.67-1.31-5.57-1.31c-1.45,0-2.75,0.26-3.88,0.78c-1.42,0.68-2.12,1.62-2.08,2.81
					c0.03,1.55,1.18,2.68,3.44,3.39c2.13,0.65,4.25,1.29,6.35,1.94c2.29,1.1,3.47,2.91,3.54,5.43c0.06,2.13-1.03,4.12-3.29,5.96
					c-1.32,1.1-3.21,1.94-5.67,2.52c-2.1,0.48-4.22,0.73-6.35,0.73c-1.39,0-2.88-0.23-4.46-0.68l-0.05-0.1
					c0.1-0.61,0.34-1.78,0.73-3.49c3.29,0.61,5.2,0.92,5.72,0.92c1.87,0,3.57-0.34,5.09-1.02c1.94-0.9,2.89-2.16,2.86-3.78
					c-0.07-1.49-1.2-2.62-3.39-3.39c-2.07-0.68-4.12-1.36-6.15-2.04c-2.23-1.1-3.38-2.81-3.44-5.14c-0.07-2.75,1.26-4.8,3.97-6.15
					c2.13-1.03,4.76-1.55,7.9-1.55c1.87,0,3.55,0.24,5.04,0.73l0.05,0.1C339.64,20.09,339.53,21.2,339.37,22.69z"/>
			</g>
		</g>
	</g>
	<g>
		<path class="st1" d="M191.3,38.43l-0.01-0.01c-0.06-0.03-0.14-0.02-0.19,0.04c-0.06,0.06-0.05,0.16,0.02,0.22
			c0.54,0.47,1.15,0.81,1.77,1.14c0.64,0.3,1.29,0.57,1.96,0.77c1.35,0.41,2.77,0.61,4.18,0.57c1.41-0.07,2.83-0.24,4.15-0.72
			c0.68-0.18,1.31-0.51,1.95-0.76c0.62-0.31,1.23-0.66,1.82-1.01c0.06-0.03,0.09-0.11,0.06-0.17c-0.03-0.08-0.11-0.12-0.18-0.09
			l-0.02,0.01c-0.65,0.23-1.27,0.51-1.91,0.73c-0.65,0.18-1.27,0.46-1.94,0.57c-1.3,0.34-2.64,0.48-3.96,0.53
			c-1.33,0.03-2.66-0.13-3.96-0.42C193.76,39.54,192.48,39.07,191.3,38.43z"/>
		<path class="st1" d="M195.51,19.64c-0.61,0.05-1.25,0.35-1.52,0.94c-0.01,0.02-0.01,0.05,0,0.07c0.02,0.05,0.07,0.08,0.13,0.07
			l0.02-0.01c0.52-0.16,0.97-0.23,1.44-0.26c0.47-0.03,0.94,0,1.53-0.05c0.02,0,0.05-0.01,0.07-0.03c0.04-0.04,0.04-0.11,0-0.15
			c-0.22-0.21-0.47-0.37-0.76-0.46C196.13,19.66,195.82,19.62,195.51,19.64z"/>
		<path class="st1" d="M203.49,19.64c-0.31-0.02-0.62,0.02-0.9,0.11c-0.29,0.09-0.54,0.26-0.76,0.46c-0.02,0.02-0.03,0.05-0.03,0.07
			c0,0.06,0.04,0.11,0.1,0.11c0.59,0.05,1.06,0.03,1.53,0.05c0.47,0.03,0.91,0.1,1.44,0.26l0.02,0.01c0.02,0.01,0.05,0.01,0.07,0
			c0.05-0.02,0.07-0.08,0.05-0.14C204.74,19.99,204.1,19.7,203.49,19.64z"/>
		<path class="st1" d="M186.7,16.18c-0.02,0.04-0.02,0.09,0.01,0.13c0.04,0.05,0.12,0.07,0.17,0.03c0.82-0.6,1.64-1.11,2.54-1.36
			c0.45-0.11,0.91-0.18,1.38-0.16c0.46,0.01,0.95,0.08,1.41,0.23c0.04,0.01,0.08,0.01,0.12-0.02c0.05-0.04,0.06-0.12,0.02-0.18
			l0-0.01c-0.19-0.23-0.42-0.37-0.66-0.52c-0.25-0.11-0.52-0.22-0.8-0.28c-0.56-0.12-1.15-0.08-1.7,0.07
			c-0.54,0.18-1.05,0.43-1.46,0.8c-0.21,0.18-0.39,0.38-0.58,0.57c-0.15,0.23-0.31,0.44-0.44,0.68L186.7,16.18z"/>
		<path class="st1" d="M211.82,15.04c-0.42-0.34-0.92-0.56-1.44-0.74c-0.53-0.15-1.09-0.18-1.63-0.1c-0.27,0.05-0.53,0.13-0.78,0.22
			c-0.25,0.12-0.47,0.25-0.69,0.43c-0.03,0.03-0.05,0.07-0.04,0.11c0.01,0.07,0.07,0.11,0.13,0.1l0.04-0.01
			c0.5-0.06,0.97-0.11,1.42-0.08c0.45,0.02,0.88,0.08,1.31,0.19c0.43,0.12,0.84,0.29,1.28,0.48c0.43,0.2,0.84,0.46,1.31,0.7
			l0.03,0.01c0.04,0.02,0.09,0.02,0.13-0.01c0.05-0.04,0.06-0.12,0.02-0.17l-0.49-0.61C212.23,15.38,212.04,15.2,211.82,15.04z"/>
		<path class="st1" d="M197.9,8.9c-0.7-0.81-1.57-1.42-2.57-1.83c-0.99-0.41-2.11-0.62-3.25-0.48c-1.15,0.13-2.19,0.63-3.04,1.25
			c-0.86,0.62-1.57,1.37-2.18,2.19l-0.04,0.05c-0.08,0.11-0.08,0.26,0.02,0.37c0.11,0.12,0.29,0.13,0.41,0.02
			c0.73-0.65,1.48-1.26,2.3-1.76c0.82-0.49,1.71-0.87,2.64-0.97c0.93-0.1,1.89,0.05,2.79,0.35c0.9,0.3,1.78,0.74,2.54,1.28
			c0.11,0.08,0.26,0.07,0.36-0.02c0.12-0.11,0.14-0.29,0.03-0.41L197.9,8.9z"/>
		<path class="st1" d="M214.23,11.98c0.1,0.1,0.26,0.13,0.38,0.05c0.14-0.09,0.19-0.27,0.1-0.42c-0.58-0.94-1.22-1.86-2.01-2.66
			c-0.79-0.8-1.76-1.46-2.86-1.81c-1.11-0.36-2.32-0.27-3.4,0.08c-1.09,0.35-2.06,0.91-2.95,1.64c-0.1,0.08-0.14,0.22-0.08,0.35
			c0.07,0.15,0.24,0.22,0.39,0.15l0.1-0.04c0.48-0.21,0.97-0.43,1.45-0.6c0.47-0.2,0.96-0.33,1.44-0.43
			c0.95-0.22,1.85-0.26,2.69-0.02c0.89,0.28,1.71,0.76,2.5,1.4c0.77,0.65,1.48,1.45,2.22,2.26L214.23,11.98z"/>
		<path class="st1" d="M171.9,47.41c-0.7-0.04-1.36-0.23-2-0.46c-0.63-0.25-1.22-0.6-1.76-1.04c-0.54-0.42-1.05-0.93-1.5-1.48
			l-0.35,0.16c0.24,0.76,0.67,1.43,1.23,2c0.56,0.56,1.24,1.02,2,1.29c0.37,0.14,0.76,0.26,1.16,0.3l0.59,0.08l0.59-0.01
			c0.39,0.02,0.78-0.09,1.16-0.14c0.38-0.1,0.74-0.21,1.1-0.34l-0.09-0.37c-0.37,0-0.73,0.05-1.09,0.06
			C172.6,47.43,172.25,47.47,171.9,47.41z"/>
		<path class="st1" d="M231.76,45.91c-0.54,0.43-1.12,0.78-1.76,1.04c-0.63,0.23-1.3,0.43-2,0.46c-0.35,0.06-0.7,0.02-1.06,0.04
			c-0.36,0-0.72-0.05-1.09-0.06l-0.09,0.37c0.36,0.13,0.72,0.25,1.1,0.34c0.38,0.05,0.76,0.16,1.16,0.14l0.59,0.01l0.59-0.08
			c0.4-0.05,0.78-0.17,1.16-0.3c0.76-0.27,1.44-0.73,2-1.29c0.56-0.57,0.99-1.24,1.23-2l-0.35-0.16
			C232.81,44.98,232.3,45.49,231.76,45.91z"/>
		<path class="st1" d="M210.59,25.57c0.37,0.17,0.75,0.31,1.14,0.41c0.41,0.1,0.83,0.17,1.26,0.2c0.08,0,0.16-0.04,0.19-0.12
			c0.04-0.1,0-0.22-0.1-0.26l-0.01,0c-0.76-0.33-1.53-0.57-2.24-0.91c-0.35-0.16-0.68-0.36-0.98-0.58c-0.28-0.22-0.53-0.53-0.6-0.79
			l-0.02-0.08c-0.02-0.07-0.08-0.13-0.16-0.14c-0.1-0.01-0.2,0.06-0.21,0.16c-0.02,0.16-0.01,0.3,0.02,0.44l-0.31,0.26
			c-0.04,0.03-0.09,0.08-0.17,0.16c-0.15,0.14-0.6,0.57-0.8,0.64c-1.35,0.5-4.06,0.79-7.43,0.79c-0.37,0-0.75,0-1.13-0.01l-0.15,0
			c-2.55-0.04-5.18-0.09-7.79-0.91c-0.2-0.06-0.43-0.24-0.71-0.46l-0.09-0.07c0.13-0.24,0.22-0.51,0.18-0.84
			c-0.01-0.08-0.06-0.14-0.14-0.16c-0.1-0.02-0.2,0.04-0.23,0.14l-0.02,0.08c-0.07,0.27-0.32,0.58-0.6,0.79
			c-0.29,0.22-0.62,0.42-0.98,0.58c-0.71,0.34-1.47,0.58-2.24,0.91l-0.01,0c-0.07,0.03-0.12,0.11-0.12,0.19
			c0.01,0.11,0.1,0.19,0.21,0.19c0.42-0.03,0.84-0.09,1.26-0.2c0.25-0.07,0.5-0.15,0.74-0.24c0.18,0.51,0.88,2.34,2.28,4.19
			c2.16,2.87,4.95,4.39,8.06,4.39c0.13,0,0.26,0.01,0.39,0.01C206.38,34.31,209.33,28.21,210.59,25.57z M201.21,33.49
			c-0.75,0.2-1.49,0.24-2.24,0.25c-0.37,0-0.74-0.01-1.12-0.04c-0.38-0.04-0.75-0.11-1.11-0.21c-0.11-0.03-0.17-0.15-0.14-0.26
			c0.03-0.1,0.12-0.16,0.22-0.15c0.72,0.07,1.42,0.09,2.15,0.08c0.36,0.01,0.72-0.01,1.08-0.02c0.36-0.01,0.73-0.03,1.07-0.06
			l0.01,0c0.11-0.01,0.22,0.07,0.23,0.18C201.37,33.37,201.3,33.46,201.21,33.49z M205.86,31.26c-0.76,0.43-1.46,0.62-1.51,0.63
			c-0.02,0-0.03,0.01-0.05,0.01c-0.03,0-0.06-0.01-0.08-0.02c-1.71-0.74-3.37-0.74-4.84-0.73l-0.16,0
			c-2.83,0.01-4.82,0.63-4.99,0.71c-0.04,0.02-0.08,0.03-0.13,0.03c-0.41-0.05-0.8-0.2-1.14-0.39c-0.7-0.6-1.3-1.27-1.8-1.93
			c0.02-0.04,0.03-0.07,0.07-0.09c0.01-0.01,0.04-0.03,0.08-0.07c2.08-1.73,4.89-2.69,7.91-2.69c0,0,0,0,0,0
			c3.95,0,5.54,0.97,8.01,3.04c0.02,0.02,0.03,0.05,0.04,0.08C206.84,30.34,206.37,30.82,205.86,31.26z"/>
		<path class="st1" d="M236.56,41.56c-0.13-1.41-0.63-2.79-1.43-3.93c-0.77-1.16-1.79-2.1-2.9-2.86c-0.94-0.64-1.94-1.15-3-1.56
			c1.34-1.24,2.37-2.67,3.02-4.35c0.38-0.93,0.64-1.93,0.73-2.95c0.12-1.02,0.01-2.08-0.29-3.09c-0.59-2.06-2.27-3.72-4.2-4.51
			c-0.46-0.21-1.06-0.38-1.63-0.38c-0.57,0-1.11,0.11-1.62,0.29c-0.74,0.28-1.39,0.68-1.98,1.16c-0.31-2.48-0.96-4.94-1.99-7.28
			c-1.2-2.55-2.91-4.89-5.06-6.77c-2.15-1.9-4.74-3.22-7.43-4.11c-1.35-0.44-2.73-0.76-4.14-0.98c-0.7-0.1-1.41-0.18-2.12-0.23
			C202.17,0.01,201.81,0,201.44,0l-1.04,0.03c-5.56,0.11-11.4,1.87-15.63,5.71c-4.09,3.64-6.75,8.58-7.81,13.81
			c-0.62-0.54-1.31-0.99-2.1-1.29c-0.5-0.18-1.05-0.29-1.61-0.3c-0.56,0-1.16,0.17-1.62,0.37c-1.92,0.78-3.61,2.44-4.21,4.49
			c-0.3,1.01-0.41,2.07-0.29,3.09c0.09,1.02,0.35,2.02,0.73,2.95c0.65,1.68,1.69,3.11,3.03,4.36c-0.43,0.18-0.84,0.37-1.25,0.58
			c-0.59,0.3-1.17,0.64-1.73,1.02c-1.1,0.76-2.15,1.66-2.93,2.81c-0.83,1.12-1.39,2.47-1.65,3.91c-0.22,1.44-0.07,2.94,0.44,4.27
			l0.02,0.04l0.03,0.06c0.39,0.75,0.87,1.48,1.48,2.13c0.6,0.65,1.37,1.17,2.19,1.5c1.65,0.69,3.36,0.64,4.91,0.41l0.06-0.01
			c0.84-0.2,1.69-0.44,2.49-0.83c0.8-0.4,1.54-0.89,2.19-1.45c0.65-0.57,1.26-1.16,1.86-1.76l0.89-0.9c0.1-0.1,0.24-0.24,0.38-0.39
			c0,0,0,0,0,0c0,0.01,0,0.03,0,0.04c0.67,1.39,1.67,2.53,2.79,3.55c0.56,0.52,1.15,0.99,1.8,1.38c0.62,0.44,1.33,0.72,2.02,1.02
			c2.81,1.1,5.78,1.62,8.71,1.76l2.2,0.04l2.19-0.15l1.09-0.08l1.08-0.17l2.14-0.35c1.42-0.29,2.81-0.7,4.19-1.07l4.05-1.45
			c0.05-0.02,0.07-0.07,0.06-0.12c-0.02-0.05-0.07-0.08-0.12-0.06l-4.11,1.16c-1.4,0.27-2.79,0.58-4.19,0.76l-2.12,0.19L201,51.18
			l-1.06,0l-2.12,0l-2.1-0.19c-2.78-0.34-5.53-1.02-8.02-2.23c-0.61-0.33-1.17-0.77-1.67-1.24c-0.21-0.18-0.42-0.33-0.64-0.47
			c2.83,1.07,5.78,1.77,8.73,2.25c0.12,0.02,0.23-0.06,0.26-0.17c0.03-0.12-0.05-0.24-0.17-0.27c-3.86-0.93-7.63-2.25-11.01-4.21
			c-1.7-0.97-3.3-2.12-4.72-3.38c-1.41-1.28-2.74-2.63-3.64-4.23c-0.9-1.61-1.33-3.37-1.23-5.27c0.07-1.84,0.7-3.68,1.7-5.31
			c0.5-0.82,1.08-1.6,1.73-2.31c0.64-0.69,1.43-1.36,2.12-2.07c1.42-1.4,2.82-2.83,4.21-4.26c0.07-0.07,0.07-0.18,0-0.25
			c-0.07-0.07-0.18-0.08-0.26-0.01c-1.47,1.34-2.95,2.68-4.45,3.99l-1.13,0.97c-0.36,0.3-0.79,0.64-1.16,0.99
			c-0.44,0.42-0.85,0.87-1.24,1.34c0.64-1.53,1.42-3,2.33-4.36c0.04-0.04,0.07-0.09,0.08-0.15l0-0.02c0.61-2.58,1.69-5.09,3.05-7.37
			c1.37-2.29,3.07-4.39,5.11-6.08c2.03-1.71,4.39-3.01,6.9-3.84c2.51-0.87,5.17-1.21,7.85-1.26c5.27-0.18,10.71,1.42,14.79,4.78
			c2.03,1.69,3.68,3.81,4.88,6.18c1.19,2.35,1.97,4.92,2.41,7.54c0,0.07,0.02,0.14,0.06,0.2c0,0,0,0,0,0c0,0,0,0.01,0.01,0.01l0,0
			c1.24,1.85,2.25,3.9,2.98,6.02c0.24,0.72,0.45,1.45,0.62,2.19c-0.63-1.33-1.44-2.56-2.44-3.64c-1.18-1.18-2.27-2.41-3.35-3.67
			c-1.09-1.25-2.19-2.51-3.23-3.81c-0.06-0.08-0.17-0.1-0.26-0.05c-0.1,0.05-0.13,0.18-0.08,0.28l0,0.01
			c0.81,1.48,1.73,2.88,2.67,4.28c0.97,1.37,1.98,2.75,3.05,4.04c0.97,1.2,1.77,2.58,2.27,4.02c0.48,1.45,0.67,2.95,0.48,4.37
			c-0.34,2.88-2.17,5.71-4.61,7.83c-1.25,1.01-2.47,2.2-4.31,2.3c-0.83,0.18-1.51,0.61-2.11,1.21c-0.61,0.58-1.19,1.23-1.61,2.27
			l-0.02,0.05c-0.01,0.01-0.01,0.03,0,0.05c0.01,0.03,0.05,0.05,0.08,0.03c2.4-1.06,4.77-2.26,6.98-3.73
			c0.17,0.22,0.36,0.4,0.48,0.53l0.88,0.91c0.59,0.61,1.2,1.2,1.86,1.75c0.66,0.55,1.41,1.03,2.22,1.41
			c0.81,0.37,1.66,0.59,2.5,0.76l0.02,0l0.03,0c1.55,0.15,3.22,0.1,4.76-0.62c0.76-0.35,1.46-0.86,2.04-1.47
			c0.58-0.61,1.04-1.31,1.41-2.04c0.01-0.02,0.02-0.04,0.03-0.06l0-0.01C236.43,44.39,236.69,42.98,236.56,41.56z M177.28,42.7
			c0.76,0.57,1.55,1.08,2.35,1.56c-0.07,0.07-0.15,0.15-0.26,0.27c-0.28,0.31-0.57,0.61-0.87,0.9c-0.59,0.59-1.19,1.16-1.83,1.67
			c-0.64,0.5-1.3,0.96-2.06,1.22c-0.73,0.27-1.51,0.42-2.32,0.53c-1.45,0.04-2.9-0.14-4.09-0.78c-1.19-0.62-2.05-1.7-2.6-2.97
			c-0.4-1.14-0.64-2.31-0.65-3.48c0.02-1.18,0.33-2.36,0.95-3.41c0.63-1.04,1.51-1.94,2.52-2.68c1-0.74,2.14-1.37,3.29-1.8l0.01,0
			c0.08-0.03,0.15-0.09,0.2-0.17c0.03-0.04,0.04-0.09,0.05-0.14c0.04,1.02,0.23,2.04,0.57,3.02c-0.89,0.68-2.33,2.01-2.63,3.62
			c-0.18,0.94,0.06,1.84,0.71,2.69c0.8,0.91,1.73,1.37,2.76,1.37c0.06,0,0.13,0,0.19,0c1.33-0.07,2.56-0.91,3.35-1.71
			C177.04,42.51,177.15,42.61,177.28,42.7z M174.97,40.56c0.34,0.41,0.73,0.77,1.1,1.14c0.1,0.09,0.2,0.17,0.3,0.26
			c-0.68,0.67-1.74,1.39-2.84,1.45c-0.88,0.06-1.68-0.33-2.36-1.1c-0.52-0.68-0.7-1.37-0.56-2.11c0.24-1.28,1.4-2.41,2.2-3.06
			c0.11,0.26,0.22,0.52,0.36,0.77C173.66,38.88,174.27,39.77,174.97,40.56z M173.78,26.23c-0.1,0.3-0.2,0.6-0.29,0.9
			c-0.23,0.42-0.43,0.85-0.62,1.3c-0.18-0.21-0.34-0.42-0.47-0.66c-0.26-0.47-0.36-1-0.2-1.47c0.15-0.47,0.53-0.85,0.99-1.03
			c0.31-0.13,0.67-0.19,1.02-0.2C174.07,25.45,173.92,25.84,173.78,26.23z M176.27,20.97c-0.28-0.25-0.6-0.46-0.93-0.64
			c-0.43-0.2-0.9-0.36-1.39-0.41c-0.49-0.05-0.99-0.03-1.47,0.12c-0.48,0.13-0.9,0.42-1.25,0.74l0.15,0.21
			c0.41-0.18,0.8-0.35,1.22-0.4c0.42-0.05,0.83-0.08,1.25-0.01c0.42,0.08,0.83,0.17,1.24,0.31c0.33,0.1,0.66,0.23,0.98,0.36
			c-0.59,1-1.11,2.04-1.57,3.1c-0.54,0-1.06,0.08-1.57,0.31c-0.6,0.27-1.1,0.82-1.26,1.47c-0.18,0.65,0,1.34,0.34,1.87
			c0.19,0.32,0.44,0.58,0.71,0.81c-0.52,1.4-0.8,2.92-0.76,4.43c-0.03-0.09-0.09-0.18-0.18-0.23l0,0c-0.88-0.29-1.59-1.01-2.12-1.79
			c-0.51-0.8-0.94-1.67-1.19-2.58c-0.53-1.82-0.53-3.78,0.04-5.47c0.3-0.84,0.75-1.62,1.36-2.27c0.6-0.66,1.38-1.14,2.2-1.52
			c0.43-0.21,0.77-0.32,1.19-0.35c0.41-0.02,0.84,0.05,1.26,0.18c0.75,0.21,1.49,0.62,2.13,1.11
			C176.53,20.54,176.4,20.76,176.27,20.97z M225.85,25.06c0.42,0,0.85,0.06,1.22,0.21c0.46,0.18,0.84,0.56,0.99,1.03
			c0.16,0.47,0.06,1.01-0.2,1.47c-0.21,0.39-0.51,0.73-0.84,1.06c-0.19-0.88-0.43-1.75-0.72-2.59
			C226.16,25.85,226,25.45,225.85,25.06z M225.05,39.79c0.04-0.05,0.08-0.1,0.12-0.15c0.68-0.9,1.26-1.92,1.65-3.02
			c0.72,0.51,2.38,1.84,2.67,3.41c0.14,0.74-0.05,1.43-0.55,2.09c-0.7,0.79-1.51,1.16-2.38,1.12c-1.24-0.07-2.43-0.97-3.08-1.71
			C224.05,40.99,224.58,40.42,225.05,39.79z M234.94,41.65c-0.05,0.58-0.14,1.14-0.31,1.7c-0.13,0.54-0.31,1.08-0.49,1.62
			c-0.26,0.59-0.58,1.14-0.97,1.61c-0.41,0.47-0.87,0.89-1.41,1.23c-1.09,0.67-2.51,0.94-3.96,0.98c-0.8-0.09-1.57-0.22-2.31-0.46
			c-0.76-0.24-1.43-0.69-2.09-1.18c-0.65-0.49-1.25-1.07-1.83-1.67c-0.29-0.3-0.58-0.6-0.85-0.92c-0.16-0.17-0.24-0.29-0.34-0.37
			c-0.02-0.02-0.06-0.04-0.08-0.05c0.4-0.28,0.8-0.57,1.19-0.87c0.43-0.33,0.85-0.68,1.26-1.05c0.07-0.06,0.14-0.13,0.21-0.2
			c0.76,0.85,2.11,1.86,3.56,1.93c0.06,0,0.13,0,0.19,0c1.03,0,1.96-0.46,2.77-1.38c0.64-0.83,0.87-1.73,0.7-2.67
			c-0.37-2-2.5-3.55-3.15-3.99c0.1-0.37,0.19-0.75,0.24-1.14c0.08-0.51,0.11-1.03,0.09-1.54c0-0.04,0.01-0.08,0.01-0.12
			c0.07-1.33-0.05-2.64-0.3-3.94c0.46-0.29,0.88-0.67,1.18-1.16c0.33-0.52,0.52-1.21,0.34-1.87c-0.17-0.65-0.66-1.2-1.26-1.47
			c-0.57-0.26-1.16-0.33-1.77-0.31c-0.46-1.06-0.98-2.09-1.57-3.09c0.34-0.14,0.68-0.28,1.02-0.38c0.41-0.14,0.83-0.24,1.24-0.31
			c0.42-0.08,0.84-0.04,1.25,0.01c0.42,0.05,0.81,0.23,1.23,0.4l0.15-0.21c-0.35-0.32-0.77-0.61-1.25-0.74
			c-0.47-0.15-0.98-0.17-1.47-0.12c-0.49,0.05-0.96,0.2-1.39,0.41c-0.35,0.18-0.67,0.4-0.97,0.66c-0.14-0.23-0.28-0.46-0.42-0.68
			c0.66-0.5,1.42-0.91,2.18-1.12c0.42-0.13,0.85-0.19,1.27-0.17c0.42,0.03,0.77,0.14,1.2,0.35c0.82,0.39,1.6,0.88,2.2,1.53
			c0.61,0.65,1.06,1.43,1.36,2.27c0.57,1.7,0.57,3.65,0.04,5.47c-0.25,0.92-0.68,1.78-1.19,2.58c-0.53,0.78-1.24,1.5-2.12,1.79l0,0
			l-0.02,0.01c-0.07,0.05-0.13,0.12-0.16,0.21c-0.07,0.21,0.04,0.43,0.25,0.5c1.17,0.39,2.33,0.99,3.33,1.75
			c1.01,0.75,1.87,1.68,2.48,2.73c0.29,0.53,0.5,1.1,0.63,1.68C234.96,40.48,234.98,41.07,234.94,41.65z"/>
		<path class="st1" d="M198.74,35.74c0.55,0,1.1-0.03,1.65-0.13c0.55-0.11,1.08-0.24,1.62-0.57c0.11-0.07,0.16-0.21,0.11-0.33
			c-0.06-0.14-0.21-0.2-0.35-0.15l-0.05,0.02c-0.41,0.17-0.94,0.27-1.44,0.32c-0.5,0.06-1.02,0.09-1.53,0.08
			c-0.49,0-1.01-0.08-1.52-0.16l-1.56-0.27c-0.13-0.02-0.26,0.05-0.31,0.18c-0.05,0.14,0.03,0.3,0.17,0.34
			C196.55,35.4,197.6,35.69,198.74,35.74z"/>
		<path class="st1" d="M199.49,12.88v0.01c-0.66,0.03-1.3,0.2-1.88,0.49c-0.64,0.31-1.13,0.72-1.64,1.11
			c-0.99,0.78-1.91,1.62-2.82,2.48c-0.3,0.14-0.6,0.3-0.84,0.55c-0.28,0.26-0.47,0.64-0.53,1.01c-0.11,0.76,0.19,1.44,0.58,1.98
			c0.02,0.03,0.05,0.04,0.08,0.02c0.03-0.02,0.05-0.06,0.03-0.09l0-0.01c-0.26-0.58-0.41-1.26-0.24-1.8
			c0.08-0.27,0.25-0.5,0.48-0.66c0.21-0.18,0.49-0.28,0.77-0.38l0.05-0.02l0.06-0.05c0.98-0.76,1.97-1.52,2.97-2.25
			c0.5-0.35,1.01-0.71,1.5-0.94c0.48-0.22,0.98-0.35,1.49-0.36c0.51,0.01,1.02,0.13,1.5,0.36c0.49,0.24,1,0.59,1.5,0.94
			c0.99,0.72,1.98,1.49,2.96,2.25l0.07,0.05l0.05,0.02c0.28,0.1,0.56,0.2,0.77,0.38c0.23,0.16,0.39,0.38,0.48,0.65
			c0.17,0.54,0.02,1.22-0.24,1.79l0,0.01c-0.02,0.03-0.01,0.07,0.03,0.1c0.04,0.03,0.08,0.02,0.11-0.02
			c0.4-0.55,0.69-1.23,0.58-1.99c-0.05-0.38-0.25-0.75-0.53-1.01c-0.25-0.25-0.54-0.41-0.84-0.55c-0.91-0.86-1.83-1.7-2.82-2.48
			c-0.5-0.39-1-0.79-1.64-1.11c-0.57-0.28-1.22-0.46-1.88-0.48v-0.01L199.49,12.88z"/>
	</g>
</g>
<g>
</g>
<g>
</g>
<g>
</g>
<g>
</g>
<g>
</g>
<g>
</g>
</svg>
